<svg fill="#999999" version="1.1" x="0px" y="0px" viewBox="0 0 100 100" style="enable-background:new 0 0 100 100;" xml:space="preserve"><g><path d="M50,0C22.4,0,0,22.4,0,50c0,27.6,22.4,50,50,50c27.6,0,50-22.4,50-50C100,22.4,77.6,0,50,0z M50,96.3   C24.5,96.3,3.7,75.5,3.7,50S24.5,3.7,50,3.7c25.5,0,46.3,20.8,46.3,46.3S75.5,96.3,50,96.3z"></path><path d="M75,28.3H25v43.5h0.5H75h0l0-0.1V28.3z M28.7,32h42.6v29.4L66.6,48l-4.8,1.6l-4.6-8.7L43.8,60.3L37,55.9l-8.3,11.4V32z    M32.8,68l5.2-7.1l6.8,4.4l12-17.3l3.2,6.1l4.3-1.4L69.8,68H32.8z"></path><path d="M47.2,42.9c0-4-3.2-7.2-7.2-7.2c-4,0-7.2,3.2-7.2,7.2c0,4,3.2,7.2,7.2,7.2C43.9,50.1,47.2,46.9,47.2,42.9z M36.4,42.9   c0-1.9,1.6-3.5,3.5-3.5c1.9,0,3.5,1.6,3.5,3.5c0,1.9-1.6,3.5-3.5,3.5C38,46.4,36.4,44.8,36.4,42.9z"></path></g></svg>
